<svg width="35" height="35" viewBox="0 0 35 35" fill="none" xmlns="http://www.w3.org/2000/svg">
<g clip-path="url(#clip0_122_19)">
<path d="M24.4806 11.9778L18.7347 17.6264C18.1149 17.3278 17.4095 17.258 16.7432 17.4292C16.0768 17.6004 15.4925 18.0016 15.0933 18.562C14.6942 19.1224 14.506 19.8058 14.562 20.4915C14.618 21.1772 14.9146 21.821 15.3993 22.3092C15.8841 22.7974 16.5258 23.0985 17.2111 23.1593C17.8964 23.2202 18.5811 23.0368 19.1443 22.6416C19.7074 22.2465 20.1128 21.665 20.2887 20.9999C20.4646 20.3347 20.3997 19.6289 20.1056 19.0069L25.8611 13.3583L24.4806 11.9778Z" fill="white"/>
<path d="M17.5 4.13197C14.4401 4.12846 11.4432 5.00068 8.86308 6.64562C6.28298 8.29056 4.22751 10.6395 2.93942 13.415C1.65133 16.1906 1.18442 19.2767 1.59385 22.3091C2.00328 25.3414 3.27194 28.1933 5.25 30.5278L5.54166 30.8681H29.4583L29.75 30.5278C31.7281 28.1933 32.9967 25.3414 33.4061 22.3091C33.8156 19.2767 33.3487 16.1906 32.0606 13.415C30.7725 10.6395 28.717 8.29056 26.1369 6.64562C23.5568 5.00068 20.5599 4.12846 17.5 4.13197ZM28.525 28.9236H6.475C4.73052 26.7407 3.67767 24.0866 3.45139 21.3014H6.80555V19.357H3.45139C3.6142 16.2699 4.7935 13.3234 6.80555 10.9764L9.1875 13.3584L10.5583 11.9875L8.19583 9.59586C10.5129 7.54791 13.4424 6.32413 16.5278 6.1153V9.51808H18.4722V6.12502C21.8803 6.37218 25.082 7.85132 27.4793 10.2863C29.8767 12.7212 31.3059 15.9454 31.5 19.357H28.1167V21.3014H31.5486C31.3223 24.0866 30.2695 26.7407 28.525 28.9236Z" fill="white"/>
</g>
<defs>
<clipPath id="clip0_122_19">
<rect width="35" height="35" fill="white"/>
</clipPath>
</defs>
</svg>
