<svg width="31" height="31" viewBox="0 0 31 31" fill="none" xmlns="http://www.w3.org/2000/svg">
<path d="M20.7 15.8875C20.7 15.3736 20.9041 14.8808 21.2675 14.5174C21.6308 14.1541 22.1236 13.95 22.6375 13.95C23.1514 13.95 23.6442 14.1541 24.0075 14.5174C24.3709 14.8808 24.575 15.3736 24.575 15.8875C24.575 16.4013 24.3709 16.8941 24.0075 17.2575C23.6442 17.6208 23.1514 17.825 22.6375 17.825C22.1236 17.825 21.6308 17.6208 21.2675 17.2575C20.9041 16.8941 20.7 16.4013 20.7 15.8875ZM12.95 15.8875C12.95 15.3736 13.1541 14.8808 13.5175 14.5174C13.8808 14.1541 14.3736 13.95 14.8875 13.95C15.4014 13.95 15.8942 14.1541 16.2575 14.5174C16.6209 14.8808 16.825 15.3736 16.825 15.8875C16.825 16.4013 16.6209 16.8941 16.2575 17.2575C15.8942 17.6208 15.4014 17.825 14.8875 17.825C14.3736 17.825 13.8808 17.6208 13.5175 17.2575C13.1541 16.8941 12.95 16.4013 12.95 15.8875ZM5.2 15.8875C5.2 15.3736 5.40413 14.8808 5.76748 14.5174C6.13083 14.1541 6.62364 13.95 7.1375 13.95C7.65135 13.95 8.14416 14.1541 8.50752 14.5174C8.87087 14.8808 9.075 15.3736 9.075 15.8875C9.075 16.4013 8.87087 16.8941 8.50752 17.2575C8.14416 17.6208 7.65135 17.825 7.1375 17.825C6.62364 17.825 6.13083 17.6208 5.76748 17.2575C5.40413 16.8941 5.2 16.4013 5.2 15.8875Z" fill="#848484"/>
</svg>
