<svg width="31" height="31" viewBox="0 0 31 31" fill="none" xmlns="http://www.w3.org/2000/svg">
<path d="M15.8875 10.3C15.3737 10.3 14.8808 10.0959 14.5175 9.73257C14.1541 9.36922 13.95 8.87641 13.95 8.36255C13.95 7.84869 14.1541 7.35588 14.5175 6.99253C14.8808 6.62918 15.3737 6.42505 15.8875 6.42505C16.4014 6.42505 16.8942 6.62918 17.2575 6.99253C17.6209 7.35588 17.825 7.84869 17.825 8.36255C17.825 8.87641 17.6209 9.36922 17.2575 9.73257C16.8942 10.0959 16.4014 10.3 15.8875 10.3ZM15.8875 18.05C15.3737 18.05 14.8808 17.8459 14.5175 17.4826C14.1541 17.1192 13.95 16.6264 13.95 16.1125C13.95 15.5987 14.1541 15.1059 14.5175 14.7425C14.8808 14.3792 15.3737 14.175 15.8875 14.175C16.4014 14.175 16.8942 14.3792 17.2575 14.7425C17.6209 15.1059 17.825 15.5987 17.825 16.1125C17.825 16.6264 17.6209 17.1192 17.2575 17.4826C16.8942 17.8459 16.4014 18.05 15.8875 18.05ZM15.8875 25.8C15.3737 25.8 14.8808 25.5959 14.5175 25.2326C14.1541 24.8692 13.95 24.3764 13.95 23.8625C13.95 23.3487 14.1541 22.8559 14.5175 22.4925C14.8808 22.1292 15.3737 21.925 15.8875 21.925C16.4014 21.925 16.8942 22.1292 17.2575 22.4925C17.6209 22.8559 17.825 23.3487 17.825 23.8625C17.825 24.3764 17.6209 24.8692 17.2575 25.2326C16.8942 25.5959 16.4014 25.8 15.8875 25.8Z" fill="#848484"/>
</svg>
