<svg width="27" height="27" viewBox="0 0 27 27" fill="none" xmlns="http://www.w3.org/2000/svg">
<path d="M15.75 11.25H18V12.1016C18.7624 11.5922 19.6488 11.2995 20.5645 11.2546C21.4803 11.2097 22.3911 11.4143 23.1997 11.8466C24.0082 12.279 24.6842 12.9228 25.1553 13.7093C25.6265 14.4959 25.8753 15.3956 25.875 16.3125V22.5H23.625V16.3125C23.625 14.7037 22.3043 13.5 20.8125 13.5C19.3207 13.5 18 14.7037 18 16.3125V22.5H15.75V11.25ZM13.5 4.5V6.75H4.5V12.375H13.5V14.625H4.5V20.25H13.5V22.5H2.25V4.5H13.5Z" fill="black"/>
</svg>
