<svg width="18" height="18" viewBox="0 0 18 18" fill="none" xmlns="http://www.w3.org/2000/svg">
<path d="M16.5614 10.5616C16.1072 12.0445 15.1968 13.3463 13.9598 14.2818C12.8738 15.0992 11.5815 15.5977 10.228 15.7214C8.87439 15.8451 7.51313 15.5891 6.29697 14.9821C5.08081 14.3751 4.0579 13.4412 3.34304 12.2851C2.62818 11.1291 2.24967 9.79666 2.25 8.43745C2.24512 6.85095 2.76087 5.30667 3.71813 4.04151C4.65366 2.80457 5.95549 1.8942 7.43836 1.43995C7.5361 1.40985 7.64018 1.40697 7.73943 1.43161C7.83868 1.45625 7.92933 1.50748 8.00164 1.57979C8.07395 1.6521 8.12518 1.74275 8.14982 1.842C8.17446 1.94125 8.17158 2.04534 8.14149 2.14307C7.81724 3.21564 7.79005 4.35608 8.06282 5.44288C8.3356 6.52968 8.89812 7.52212 9.69044 8.31444C10.4828 9.10676 11.4752 9.66927 12.562 9.94205C13.6488 10.2148 14.7892 10.1876 15.8618 9.86339C15.9595 9.83329 16.0636 9.83041 16.1629 9.85505C16.2621 9.87969 16.3528 9.93092 16.4251 10.0032C16.4974 10.0755 16.5486 10.1662 16.5733 10.2654C16.5979 10.3647 16.595 10.4688 16.5649 10.5665L16.5614 10.5616Z" fill="#D3B9FD"/>
</svg>
