<svg width="28" height="28" viewBox="0 0 28 28" fill="none" xmlns="http://www.w3.org/2000/svg">
<g clip-path="url(#clip0_122_453)">
<path d="M14 2.33337C11.8341 2.33337 9.75684 3.19379 8.22529 4.72533C6.69375 6.25688 5.83333 8.33411 5.83333 10.5V14.616C5.8335 14.797 5.79156 14.9756 5.71083 15.1375L3.70767 19.1427C3.60981 19.3384 3.56361 19.5558 3.57344 19.7744C3.58327 19.9929 3.64881 20.2053 3.76384 20.3914C3.87886 20.5775 4.03955 20.7311 4.23064 20.8377C4.42174 20.9442 4.63689 21.0001 4.85567 21H23.1443C23.3631 21.0001 23.5783 20.9442 23.7694 20.8377C23.9604 20.7311 24.1211 20.5775 24.2362 20.3914C24.3512 20.2053 24.4167 19.9929 24.4266 19.7744C24.4364 19.5558 24.3902 19.3384 24.2923 19.1427L22.2903 15.1375C22.2092 14.9757 22.1669 14.7971 22.1667 14.616V10.5C22.1667 8.33411 21.3063 6.25688 19.7747 4.72533C18.2432 3.19379 16.1659 2.33337 14 2.33337ZM14 24.5C13.2759 24.5002 12.5696 24.276 11.9783 23.8581C11.387 23.4402 10.9398 22.8493 10.6983 22.1667H17.3017C17.0602 22.8493 16.613 23.4402 16.0217 23.8581C15.4304 24.276 14.7241 24.5002 14 24.5Z" fill="#060000"/>
</g>
<defs>
<clipPath id="clip0_122_453">
<rect width="28" height="28" fill="white"/>
</clipPath>
</defs>
</svg>
