<svg width="163" height="121" viewBox="0 0 163 121" fill="none" xmlns="http://www.w3.org/2000/svg">
<path d="M138.804 49.5923V58.675C138.804 61.0273 137.718 63.4493 136.302 64.7213C135.668 65.292 134.968 65.6318 134.269 65.6318C134.013 65.6318 133.765 65.61 133.522 65.5621C131.615 65.2092 130.169 63.5321 130.169 61.5195V47.3576C130.169 45.0881 132.006 43.2498 134.269 43.2498C135.398 43.2498 136.536 43.7681 137.383 44.8223C138.235 45.8765 138.804 47.4622 138.804 49.5923Z" fill="url(#paint0_linear_122_280)"/>
<path d="M135.993 81.3314C135.993 82.4683 135.403 83.6053 134.204 84.4591C133.005 85.3086 131.202 85.8792 128.779 85.8792H118.445C114.579 85.8792 110.54 83.6053 110.54 81.3314C110.54 79.0575 112.633 77.2235 115.214 77.2235H131.32C131.68 77.2235 132.032 77.2584 132.371 77.3324C132.458 77.3455 132.545 77.3673 132.631 77.389C133.665 77.6548 134.556 78.2298 135.159 78.9878C135.303 79.1664 135.424 79.3537 135.533 79.5497C135.537 79.5541 135.537 79.5584 135.537 79.5584C135.828 80.0942 135.993 80.6954 135.993 81.3314Z" fill="url(#paint1_linear_122_280)"/>
<path d="M135.159 78.9878C134.556 78.2298 133.665 77.6548 132.631 77.3891C132.545 77.3673 132.458 77.3455 132.371 77.3324C132.271 75.908 132.184 73.5948 132.371 71.1597C132.558 68.729 133.118 66.7382 133.522 65.5621C133.765 65.61 134.013 65.6318 134.269 65.6318C134.968 65.6318 135.668 65.292 136.302 64.7213C135.924 66.0064 134.53 69.1298 134.421 72.0266C134.33 74.5009 134.873 77.5633 135.159 78.9878Z" fill="#A797F2"/>
<path d="M105.514 117.244L105.158 116.486L122.515 108.619L122.615 111.258L105.514 117.244Z" fill="#785EDB"/>
<path d="M143.781 118.489L144.138 117.727L123.909 108.605L123.805 111.245L143.781 118.489Z" fill="#785EDB"/>
<path d="M123.944 108.997L123.792 120.171L122.884 120.223L122.454 109.071L122.255 85.8835H124.279L123.944 108.997Z" fill="#A797F2"/>
<path d="M106.661 18.6897C106.67 19.0251 106.678 19.3518 106.696 19.6785C106.63 19.6785 106.565 19.6655 106.487 19.648C105.119 19.3213 104.463 18.1277 104.441 17.3088C104.411 16.2981 105.549 16.0586 106.452 16.2981C106.535 16.3199 106.617 16.3461 106.696 16.3809C106.665 16.8035 106.648 17.2347 106.648 17.6703C106.648 18.0145 106.652 18.3543 106.661 18.6897Z" fill="url(#paint2_linear_122_280)"/>
<path d="M129.413 18.3281C129.413 19.9312 127.354 20.8416 125.69 20.8416C125.121 20.8416 124.704 20.785 124.405 20.6586C124.587 19.7264 124.683 18.816 124.7 17.9665C124.704 17.8663 124.704 17.7661 124.704 17.6703C124.704 17.5614 124.7 17.3479 124.7 17.3479C124.7 17.3479 124.704 16.9602 126.172 16.9341C126.407 16.9297 126.65 16.921 126.889 16.921C128.162 16.8949 129.413 16.9864 129.413 18.3281Z" fill="url(#paint3_linear_122_280)"/>
<path d="M125.59 19.6393C125.477 19.6393 125.382 19.5521 125.373 19.4345C125.365 19.3125 125.456 19.2123 125.577 19.2036C126.285 19.1601 126.767 18.4021 126.772 18.3934C126.833 18.2932 126.967 18.2583 127.072 18.3237C127.171 18.3847 127.206 18.5197 127.141 18.6243C127.115 18.6635 126.542 19.5826 125.603 19.6393C125.599 19.6393 125.595 19.6393 125.59 19.6393Z" fill="#FE7A93"/>
<path d="M124.691 17.605L123.653 33.2959L123.64 33.4702C123.64 33.4702 122.932 34.3414 121.92 34.3414C120.908 34.3414 120.53 33.4702 120.53 33.4702V18.6592L124.691 17.605Z" fill="url(#paint4_linear_122_280)"/>
<path d="M124.704 17.6703C124.704 18.6025 124.609 19.6175 124.405 20.6586C123.54 24.9495 120.725 29.6323 114.458 30.1986C114.045 30.2379 113.615 30.2553 113.168 30.2553C111.117 30.2553 109.649 29.3013 108.633 27.6895C107.716 26.2389 107.165 24.2612 106.882 21.9698C106.791 21.238 106.73 20.4713 106.696 19.6785C106.678 19.3518 106.67 19.0251 106.661 18.6896C106.652 18.3542 106.648 18.0144 106.648 17.6703C106.648 17.2347 106.665 16.8034 106.696 16.3809C106.778 15.2788 106.961 14.2202 107.234 13.2227C107.464 12.3645 107.764 11.5499 108.116 10.7963C109.476 7.89506 111.669 5.82587 114.223 5.25086C114.697 5.14196 115.183 5.08533 115.678 5.08533C120.582 5.08533 124.578 10.5436 124.7 17.3479C124.704 17.4569 124.704 17.5614 124.704 17.6703Z" fill="url(#paint5_linear_122_280)"/>
<g style="mix-blend-mode:soft-light">
<path d="M122.124 11.4279C120 15.4879 111.226 12.4429 108.116 10.7963C109.476 7.89505 111.669 5.82587 114.223 5.25085C118.719 6.5882 123.714 8.39601 122.124 11.4279Z" fill="#962339"/>
</g>
<path d="M108.359 16.8339C108.359 17.1302 108.19 17.3654 107.981 17.3654C107.773 17.3654 107.603 17.1258 107.603 16.8339C107.603 16.5421 107.773 16.3025 107.981 16.3025C108.19 16.3025 108.359 16.5421 108.359 16.8339Z" fill="#160C45"/>
<path d="M112.512 17.5179C112.72 17.5179 112.89 17.2799 112.89 16.9864C112.89 16.6929 112.72 16.455 112.512 16.455C112.303 16.455 112.134 16.6929 112.134 16.9864C112.134 17.2799 112.303 17.5179 112.512 17.5179Z" fill="#160C45"/>
<path d="M109.271 15.4138C109.271 15.4138 108.615 14.7778 107.881 14.9564C107.147 15.135 106.869 15.9714 106.869 15.9714C106.869 15.9714 107.551 15.3877 108.086 15.514C108.898 15.7101 109.276 15.4138 109.276 15.4138H109.271Z" fill="#3F327A"/>
<path d="M111.33 15.6665C111.039 15.6012 111.977 15.0698 112.998 15.183C114.023 15.2963 114.505 16.1719 114.236 16.2111C113.971 16.2503 113.359 15.8364 112.716 15.7014C112.351 15.6273 111.617 15.7275 111.326 15.6622L111.33 15.6665Z" fill="#3F327A"/>
<path d="M110.123 21.4472C109.953 21.4472 109.793 21.4123 109.641 21.3383C109.132 21.09 108.941 20.5019 108.933 20.4757L108.906 20.3973L108.937 20.3233C108.937 20.3233 109.289 19.4869 109.462 18.9337C109.636 18.3761 109.923 17.2304 109.927 17.2173C109.958 17.0997 110.071 17.03 110.192 17.0605C110.309 17.091 110.379 17.2086 110.349 17.3262C110.336 17.3741 110.053 18.4937 109.879 19.0643C109.732 19.5392 109.467 20.1839 109.376 20.4104C109.432 20.5411 109.575 20.8199 109.836 20.9419C110.018 21.029 110.227 21.029 110.47 20.9419C110.583 20.8983 110.709 20.9549 110.748 21.0682C110.792 21.1814 110.731 21.3078 110.622 21.347C110.448 21.4123 110.283 21.4428 110.123 21.4428V21.4472Z" fill="#C73651"/>
<path d="M110.288 24.1653C109.762 24.1653 109.371 24.0042 109.363 23.9998C109.254 23.9519 109.202 23.8256 109.25 23.7167C109.297 23.6078 109.423 23.5555 109.532 23.599C109.584 23.6208 110.77 24.1044 111.639 23.1242C111.717 23.0327 111.856 23.024 111.947 23.1068C112.038 23.1852 112.047 23.3246 111.964 23.4161C111.434 24.0172 110.796 24.1697 110.288 24.1697V24.1653Z" fill="#C73651"/>
<path d="M108.194 20.3494C108.194 21.1466 107.634 21.8131 106.882 21.9699C106.756 20.9375 106.687 19.8354 106.661 18.6897C107.521 18.755 108.194 19.4738 108.194 20.3494Z" fill="#FE98AB"/>
<path d="M116.551 20.5279C116.551 21.4471 115.808 22.192 114.892 22.192C113.975 22.192 113.233 21.4471 113.233 20.5279C113.233 19.6088 113.975 18.8639 114.892 18.8639C115.808 18.8639 116.551 19.6088 116.551 20.5279Z" fill="#FE98AB"/>
<path d="M114.458 30.1987C114.045 30.2379 113.615 30.2553 113.168 30.2553C111.117 30.2553 109.649 29.3013 108.633 27.6895C109.323 27.6808 110.075 27.7766 110.848 27.9857C112.499 28.4301 113.823 29.2795 114.458 30.1987Z" fill="#FE98AB"/>
<path d="M126.889 16.921C126.65 16.921 124.183 17.997 123.566 18.9902C122.949 19.9834 122.302 23.0501 122.302 23.0501L121.568 22.9717C121.568 22.9717 121.998 19.8266 121.92 18.9118C121.846 18.0013 120.908 16.8557 120.834 14.8039C120.756 12.7478 121.49 11.7328 121.49 11.7328C121.49 11.7328 121.529 11.6631 121.599 11.5411C121.785 11.393 122.298 10.9356 122.971 10.6786C123.831 10.3519 125.538 10.4652 125.538 10.4652C125.538 10.4652 125.543 10.439 125.543 10.3911C125.638 10.4216 125.69 10.439 125.69 10.439C125.69 10.439 127.31 11.3016 127.614 13.3054C127.832 14.7473 127.224 16.1935 126.889 16.921Z" fill="url(#paint6_linear_122_280)"/>
<path d="M125.543 10.3911C125.543 10.439 125.538 10.4652 125.538 10.4652C125.538 10.4652 123.818 10.439 122.958 10.7658C122.285 11.0228 121.785 11.393 121.599 11.5412C121.546 11.5804 121.516 11.6065 121.516 11.6065C121.516 11.6065 118.276 12.212 114.154 11.6283C110.027 11.0489 108.585 9.34564 108.585 9.34564C108.585 9.34564 107.16 9.85532 105.701 10.744C104.246 11.6283 103.073 13.1791 103.073 13.1791C103.073 13.1791 103.325 11.0707 104.515 9.98164C105.701 8.88825 106.587 8.58331 106.587 8.58331C106.587 8.58331 106.435 8.19562 105.453 8.03879C105.358 8.02137 105.258 8.0083 105.145 7.99959C104.311 7.92553 103.19 9.42406 103.19 9.42406C103.19 9.42406 103.594 7.13706 105.44 5.79536C107.286 4.44931 110.31 4.2707 110.31 4.2707C110.31 4.2707 109.297 3.71312 108.385 3.68698C107.473 3.66084 106.609 4.2707 106.609 4.2707C106.609 4.2707 108.915 -1.66676 118.58 1.22574C122.967 2.53695 124.609 5.41202 125.212 7.60753C125.59 8.98844 125.56 10.0993 125.543 10.3911Z" fill="url(#paint7_linear_122_280)"/>
<path style="mix-blend-mode:screen" opacity="0.1" d="M125.212 7.60753C124.109 7.43764 122.836 7.08479 121.364 6.50542C114.792 3.90479 108.928 6.05674 105.453 8.03879C105.358 8.02137 105.258 8.0083 105.145 7.99959C104.311 7.92553 103.19 9.42406 103.19 9.42406C103.19 9.42406 103.594 7.13706 105.44 5.79536C107.286 4.44931 110.31 4.2707 110.31 4.2707C110.31 4.2707 109.297 3.71312 108.385 3.68698C107.473 3.66084 106.609 4.2707 106.609 4.2707C106.609 4.2707 108.915 -1.66676 118.58 1.22574C122.967 2.53695 124.609 5.41202 125.212 7.60753Z" fill="url(#paint8_linear_122_280)"/>
<path d="M127.389 69.0818C127.389 69.0818 121.212 70.9594 115.9 70.3495C115.396 70.2929 114.927 70.2232 114.484 70.1447C110.401 69.4434 108.928 68.0581 108.841 67.971L112.968 47.5101C112.968 47.5101 111.044 52.7898 107.048 55.1769C103.594 57.2374 96.6576 59.7553 95.2416 60.1735C95.0982 60.217 95.0157 60.2432 95.0027 60.2519C94.8506 60.3521 92.6267 58.3221 92.6267 58.3221C92.6267 58.3221 101.34 55.0158 104.871 51.7225C108.416 48.4249 114.488 37.7174 116.108 36.1448C116.247 36.0054 116.399 35.8704 116.556 35.7397C118.093 34.4242 120.269 33.3395 120.534 33.2131V33.4701C120.534 33.4701 120.912 34.3414 121.924 34.3414C122.936 34.3414 123.644 33.4701 123.644 33.4701L123.658 33.2959H123.849C123.849 33.2959 126.22 33.7838 127.906 35.7397C128.479 36.4019 128.97 37.2339 129.265 38.275C130.429 42.3872 127.393 69.0818 127.393 69.0818H127.389Z" fill="#FFD791"/>
<path d="M95.2546 60.2519C95.2546 60.2519 91.9143 59.3894 89.0302 59.3502C88.0138 59.3371 87.8921 57.599 90.2811 57.599C90.8979 57.599 91.8883 58.2437 92.6223 58.3221C92.6223 58.3221 94.8463 60.3521 94.9983 60.2519C95.0113 60.2432 95.0939 60.2171 95.2372 60.1735C95.2502 60.2258 95.2546 60.2519 95.2546 60.2519Z" fill="#FEB7C4"/>
<path d="M124.096 56.3445C119.479 59.8163 103.347 60.4044 103.347 60.4044L103.043 58.1697C103.043 58.1697 113.554 57.7384 120.248 53.4999C125.46 50.2023 123.08 35.3303 127.237 35.0907C127.623 35.474 128.344 36.2451 129.217 38.0355C130.09 39.8259 127.736 53.6044 124.092 56.3445H124.096Z" fill="url(#paint9_linear_122_280)"/>
<path d="M103.121 58.2219C103.121 58.2219 102.513 57.917 100.893 58.3221C99.2724 58.7272 97.2005 59.6943 98.2603 60.4523C99.3245 61.2146 103.373 60.1996 103.373 60.1996L103.121 58.2219Z" fill="#FEB7C4"/>
<path d="M127.901 35.7397C125.864 37.1947 124.122 37.9091 122.65 38.153C121.794 38.2968 121.034 38.2837 120.356 38.1617C118.419 37.8089 117.19 36.5892 116.551 35.7397C117.728 34.7334 119.279 33.8622 120.061 33.4527C120.23 33.3612 120.365 33.2959 120.448 33.2523C120.487 33.2349 120.513 33.2218 120.53 33.2131V33.4701C120.53 33.4701 120.908 34.3414 121.92 34.3414C121.942 34.3414 121.963 34.3414 121.985 34.337C122.963 34.3022 123.64 33.4701 123.64 33.4701L123.653 33.2959H123.844C123.844 33.2959 124.096 33.3525 124.496 33.4919C125.321 33.7707 126.768 34.4242 127.901 35.7397Z" fill="#DDD6FF"/>
<path d="M121.92 34.3413C121.92 34.3413 118.897 36.8941 118.58 36.6501C118.311 36.441 119.687 34.08 120.061 33.4527C120.117 33.3569 120.152 33.3002 120.152 33.3002C120.235 33.2436 120.335 33.2349 120.448 33.2523C120.474 33.2567 120.5 33.261 120.53 33.2741V33.4701C120.53 33.4701 120.908 34.3413 121.92 34.3413Z" fill="#B3A3FF"/>
<path d="M124.496 33.4919C124.465 34.1846 124.339 36.5892 124.127 36.7678C123.879 36.9769 121.955 34.4459 121.933 34.4198C121.933 34.4198 121.95 34.3893 121.985 34.337C122.963 34.3022 123.64 33.4701 123.64 33.4701L123.653 33.2959H123.844C123.844 33.2959 124.096 33.3525 124.496 33.4919Z" fill="#B3A3FF"/>
<path d="M120.435 35.5219L120.834 37.0074L122.255 37.064L123.023 35.7746L121.955 34.2543L120.435 35.5219Z" fill="#FF5299"/>
<path d="M122.65 38.153C121.794 38.2967 121.034 38.2837 120.356 38.1617L120.834 37.0073L122.255 37.0639L122.65 38.153Z" fill="#FF5299"/>
<path d="M109.675 108.183C109.675 108.183 109.298 109.176 108.155 109.633C107.017 110.086 106.335 109.707 106.335 109.707C106.335 109.707 95.4153 99.1176 93.4694 91.7252C93.2218 90.7799 93.1175 89.8869 93.2044 89.0767C93.3521 87.6958 94.021 86.0622 95.0113 84.3241C99.1465 77.0536 108.837 67.9667 108.837 67.9667C108.924 68.0582 110.396 69.4434 114.479 70.1448C114.479 70.1448 105.571 88.3144 105.193 95.245C104.811 102.171 109.671 108.183 109.671 108.183H109.675Z" fill="url(#paint10_linear_122_280)"/>
<path d="M111.574 111.459C111.495 112.217 109.706 113.441 106.865 115.418C104.016 117.401 101.249 119.605 100.793 118.921C99.8849 117.549 105.879 113.362 106.109 111.916C106.335 110.47 106.335 109.708 106.335 109.708C106.335 109.708 107.017 110.087 108.155 109.633C109.297 109.176 109.675 108.183 109.675 108.183C109.675 108.183 111.726 109.934 111.574 111.459Z" fill="url(#paint11_linear_122_280)"/>
<path d="M125.008 78.3693C122.376 82.5294 114.484 89.0245 103.551 96.4343C92.6223 103.844 83.3835 115.697 83.3835 115.697C83.3835 115.697 82.1716 115.924 81.1856 115.188C80.1996 114.451 80.3473 113.589 80.3473 113.589C80.3473 113.589 88.6132 101.631 94.5683 94.5742C95.0113 94.0471 95.4457 93.5505 95.8583 93.0844C97.3352 91.4247 99.2203 89.1856 101.227 86.7505C107.317 79.345 114.484 70.1448 114.484 70.1448C114.927 70.2232 115.396 70.2929 115.9 70.3496C121.212 70.9594 127.389 69.0819 127.389 69.0819C127.645 69.5393 127.641 74.2091 125.008 78.3693Z" fill="url(#paint12_linear_122_280)"/>
<path d="M81.7416 119.452C79.5003 119.452 68.4588 117.549 68.8367 116.481C69.2146 115.418 73.3931 116.024 75.8212 115.493C78.2493 114.961 80.3473 113.589 80.3473 113.589C80.3473 113.589 80.1996 114.451 81.1856 115.188C82.1716 115.924 83.3835 115.697 83.3835 115.697C83.3835 115.697 83.6397 119.452 81.7416 119.452Z" fill="url(#paint13_linear_122_280)"/>
<path d="M99.5765 58.1914V60.1996H87.4578V39.1898H88.6436V58.1914H99.5765Z" fill="url(#paint14_linear_122_280)"/>
<path d="M87.4534 39.1854H57.0916V60.1952H87.4534V39.1854Z" fill="url(#paint15_linear_122_280)"/>
<path d="M72.2768 50.8076C72.8909 50.8076 73.3888 50.3083 73.3888 49.6924C73.3888 49.0766 72.8909 48.5773 72.2768 48.5773C71.6627 48.5773 71.1649 49.0766 71.1649 49.6924C71.1649 50.3083 71.6627 50.8076 72.2768 50.8076Z" fill="#EDEBFF"/>
<path d="M46.4584 50.9776L46.0501 53.0642L45.8242 54.2142L45.303 56.8889L45.0901 57.9823L44.6514 60.2345H38.7832L37.1413 50.9776C37.2369 50.9253 38.7832 50.1107 41.6239 50.1107C44.4646 50.1107 46.454 50.9776 46.454 50.9776H46.4584Z" fill="#E5659A"/>
<path d="M47.2359 57.2113C46.5149 57.9127 45.6983 58.0042 45.3421 58.0042C45.2378 58.0042 45.1727 57.9954 45.1596 57.9911C45.1379 57.9911 45.1119 57.9824 45.0901 57.978L45.303 56.8846C45.3768 56.8933 45.9458 56.9151 46.4584 56.4141C47.4748 55.4253 47.7745 54.6325 47.5399 54.3798C47.2967 54.1184 46.4367 54.1097 45.9111 54.2056C45.8807 54.2056 45.8546 54.2143 45.8242 54.2143L46.0501 53.0642C46.6408 53.0033 47.7571 52.9815 48.3522 53.6262C49.1254 54.4626 48.7171 55.7694 47.2316 57.2157L47.2359 57.2113Z" fill="#E5659A"/>
<path d="M46.4584 50.9776C41.0245 54.4364 37.1413 50.9776 37.1413 50.9776C37.2369 50.9253 38.7832 50.1107 41.6239 50.1107C44.4646 50.1107 46.454 50.9776 46.454 50.9776H46.4584Z" fill="#E54C8B"/>
<path opacity="0.4" d="M39.3652 41.7381C40.2383 42.0256 40.9463 42.6486 41.3763 43.5459C41.5848 43.9903 41.6891 44.5348 41.6456 45.0619C41.6109 45.5454 41.4589 46.1117 41.1722 46.556C41.0375 46.7826 40.8812 46.9568 40.7769 47.0918C40.6683 47.2312 40.5945 47.3227 40.5424 47.4186C40.4946 47.5144 40.4555 47.6233 40.4294 47.7627L40.4034 47.9892L40.3947 48.2767C40.3686 49.0478 40.386 49.8406 40.3903 50.6465V50.6596C40.3903 50.7641 40.3035 50.8512 40.1992 50.8512C40.1297 50.8512 40.0689 50.8164 40.0342 50.7597C39.5868 50.0279 39.3175 49.2351 39.1177 48.4161L39.0525 48.1068C39.0351 47.9849 39.0134 47.8629 39.0091 47.7322C39.0004 47.4708 39.0178 47.1833 39.109 46.8958C39.2002 46.6127 39.3348 46.3644 39.4565 46.177C39.5781 45.9854 39.6693 45.8416 39.7345 45.7197C39.8604 45.4757 39.9125 45.2448 39.9386 44.9312C39.9603 44.6567 39.9343 44.3954 39.8691 44.0904C39.7431 43.4806 39.4391 42.801 39.1263 42.0256L39.1177 42.0038C39.0786 41.9036 39.1263 41.786 39.2263 41.7468C39.2697 41.7294 39.3175 41.7294 39.3609 41.7425L39.3652 41.7381Z" fill="#F8F7FF"/>
<path opacity="0.4" d="M43.8609 44.3954C44.204 44.5261 44.482 44.7439 44.7036 45.0401C44.9294 45.332 45.0858 45.7197 45.0988 46.1379C45.0988 46.2381 45.0988 46.3426 45.0858 46.4472C45.0684 46.5474 45.051 46.6475 45.0293 46.7477L44.9294 47.0309C44.8947 47.118 44.8556 47.1834 44.8208 47.2618C44.6731 47.5623 44.4864 47.8629 44.2735 48.1243C44.052 48.3944 43.8522 48.586 43.7349 48.7646C43.609 48.9389 43.5091 49.1828 43.4396 49.4268C43.2962 49.9234 43.2788 50.5158 43.3049 51.0952V51.117C43.3093 51.2215 43.2311 51.3087 43.1268 51.313C43.053 51.313 42.9878 51.2738 42.9531 51.2128C42.6403 50.6334 42.4796 49.9887 42.5144 49.283C42.5404 48.9302 42.6143 48.5817 42.7837 48.2245C42.9661 47.876 43.1876 47.6233 43.3266 47.4055C43.483 47.1877 43.6046 46.9612 43.7219 46.7173L43.8044 46.5343L43.8609 46.3905C43.8696 46.3426 43.887 46.2947 43.9043 46.2468C43.913 46.1989 43.9217 46.1509 43.9347 46.103C43.9999 45.724 43.8696 45.2187 43.6263 44.6742L43.6133 44.6437C43.5699 44.5479 43.6133 44.4303 43.7132 44.3867C43.761 44.3649 43.8131 44.3649 43.8609 44.3867V44.3954Z" fill="#F8F7FF"/>
<path d="M162.972 60.1952H0.246582V61.8592H162.972V60.1952Z" fill="#CE9E66"/>
<path d="M15.6925 61.8593C15.6925 61.8593 14.789 117.531 12.9691 117.531C11.1491 117.531 11.1621 61.8593 11.1621 61.8593H15.6925Z" fill="#CEB2A7"/>
<path d="M148.985 61.8593C148.985 61.8593 148.082 117.531 146.262 117.531C144.442 117.531 144.455 61.8593 144.455 61.8593H148.985Z" fill="#CEB2A7"/>
<defs>
<linearGradient id="paint0_linear_122_280" x1="132.783" y1="67.8055" x2="136.038" y2="39.8933" gradientUnits="userSpaceOnUse">
<stop stop-color="#3F327A"/>
<stop offset="1" stop-color="#644183"/>
</linearGradient>
<linearGradient id="paint1_linear_122_280" x1="121.103" y1="85.4741" x2="126.693" y2="74.7275" gradientUnits="userSpaceOnUse">
<stop stop-color="#3F327A"/>
<stop offset="1" stop-color="#644183"/>
</linearGradient>
<linearGradient id="paint2_linear_122_280" x1="104.441" y1="17.9448" x2="106.696" y2="17.9448" gradientUnits="userSpaceOnUse">
<stop stop-color="#FEB7C4"/>
<stop offset="1" stop-color="#FE96A9"/>
</linearGradient>
<linearGradient id="paint3_linear_122_280" x1="124.405" y1="18.8813" x2="129.413" y2="18.8813" gradientUnits="userSpaceOnUse">
<stop stop-color="#FEB7C4"/>
<stop offset="1" stop-color="#FE96A9"/>
</linearGradient>
<linearGradient id="paint4_linear_122_280" x1="122.35" y1="31.2964" x2="122.551" y2="21.1466" gradientUnits="userSpaceOnUse">
<stop stop-color="#FEB7C4"/>
<stop offset="1" stop-color="#FE96A9"/>
</linearGradient>
<linearGradient id="paint5_linear_122_280" x1="113.498" y1="27.0448" x2="118.18" y2="6.75093" gradientUnits="userSpaceOnUse">
<stop stop-color="#FEB7C4"/>
<stop offset="1" stop-color="#FECDD6"/>
</linearGradient>
<linearGradient id="paint6_linear_122_280" x1="122.58" y1="17.9273" x2="125.557" y2="11.2339" gradientUnits="userSpaceOnUse">
<stop stop-color="#111111"/>
<stop offset="1" stop-color="#616062"/>
</linearGradient>
<linearGradient id="paint7_linear_122_280" x1="118.793" y1="8.2566" x2="125.552" y2="9.23988" gradientUnits="userSpaceOnUse">
<stop/>
<stop offset="0.54" stop-color="#2C2B2D"/>
<stop offset="1" stop-color="#565457"/>
</linearGradient>
<linearGradient id="paint8_linear_122_280" x1="112.638" y1="6.01753" x2="117.398" y2="7.98551" gradientUnits="userSpaceOnUse">
<stop stop-color="white"/>
<stop offset="1" stop-color="white" stop-opacity="0"/>
</linearGradient>
<linearGradient id="paint9_linear_122_280" x1="113.315" y1="59.0366" x2="121.4" y2="39.2584" gradientUnits="userSpaceOnUse">
<stop offset="0.2" stop-color="#FFC96B"/>
<stop offset="1" stop-color="#FFD791"/>
</linearGradient>
<linearGradient id="paint10_linear_122_280" x1="102.756" y1="95.5804" x2="126.223" y2="62.7554" gradientUnits="userSpaceOnUse">
<stop offset="0.11" stop-color="#499DDC"/>
<stop offset="1" stop-color="#96A2E3"/>
</linearGradient>
<linearGradient id="paint11_linear_122_280" x1="100.697" y1="113.615" x2="111.582" y2="113.615" gradientUnits="userSpaceOnUse">
<stop stop-color="#3F327A"/>
<stop offset="1" stop-color="#644183"/>
</linearGradient>
<linearGradient id="paint12_linear_122_280" x1="87.9182" y1="108.222" x2="130.559" y2="63.276" gradientUnits="userSpaceOnUse">
<stop offset="0.06" stop-color="#5CA5DC"/>
<stop offset="1" stop-color="#96A2E3"/>
</linearGradient>
<linearGradient id="paint13_linear_122_280" x1="68.828" y1="116.521" x2="83.3965" y2="116.521" gradientUnits="userSpaceOnUse">
<stop stop-color="#3F327A"/>
<stop offset="1" stop-color="#644183"/>
</linearGradient>
<linearGradient id="paint14_linear_122_280" x1="98.3255" y1="41.0543" x2="82.4058" y2="69.4958" gradientUnits="userSpaceOnUse">
<stop stop-color="#9379FC"/>
<stop offset="1" stop-color="#F5D0FC"/>
</linearGradient>
<linearGradient id="paint15_linear_122_280" x1="56.149" y1="63.6671" x2="71.7854" y2="50.1945" gradientUnits="userSpaceOnUse">
<stop stop-color="#3F327A"/>
<stop offset="1" stop-color="#644183"/>
</linearGradient>
</defs>
</svg>
