<svg width="64" height="75" viewBox="0 0 64 75" fill="none" xmlns="http://www.w3.org/2000/svg">
<path d="M28.5666 27.0003C23.1553 35.7965 19.3461 43.4977 19.2037 43.7825C19.2037 43.7825 16.5782 43.6935 16.0442 40.0344C15.5013 36.3752 16.0442 27.8283 16.0442 27.8283C16.0442 27.8283 11.5764 34.7371 8.85299 29.8671C4.53647 22.1304 11.4874 15.1415 11.9502 14.6875C11.5675 14.9635 6.3165 18.6582 3.69989 12.9069C0.994277 6.94186 3.84229 2.0541 7.2332 0.424846C10.6152 -1.1955 17.1211 1.78701 21.7313 9.92436C26.3505 18.0528 28.5132 25.656 28.5132 25.656C28.5933 26.0655 28.6022 26.5196 28.5755 26.9914L28.5666 27.0003Z" fill="url(#paint0_linear_122_71)"/>
<path d="M26.6175 31.8169C25.9945 29.1549 25.0332 26.5641 23.9029 24.1158C23.9029 24.0802 23.903 24.0446 23.8852 24.009C23.8674 23.9555 23.8317 23.911 23.7961 23.8754C22.6213 21.3648 21.2596 18.9966 19.8712 16.8688C20.1916 11.3934 18.1802 9.43474 18.0912 9.34571C17.9132 9.17655 17.6373 9.18545 17.4682 9.36351C17.2991 9.54157 17.308 9.81757 17.486 9.99563C17.5038 10.0134 18.9901 11.5091 19.0257 15.5778C15.1008 9.82647 11.2649 6.03379 11.1937 5.96256C11.0157 5.7934 10.7398 5.7934 10.5618 5.96256C10.3927 6.14062 10.3927 6.41661 10.5618 6.59467C10.633 6.66589 14.8783 10.8592 18.9723 17.1002C18.9634 17.2961 19.0791 17.4653 19.2571 17.5365C20.5209 19.4951 21.758 21.6408 22.8438 23.911C19.0435 24.9616 14.371 20.1273 14.3176 20.0738C14.1485 19.8958 13.8637 19.8869 13.6857 20.056C13.5077 20.2252 13.4988 20.5101 13.6679 20.6881C13.8637 20.8929 17.7886 24.9705 21.7046 24.9705C22.2119 24.9705 22.7281 24.8993 23.2265 24.739C24.2856 27.0627 25.1667 29.5021 25.763 32.0039C25.8075 32.2087 25.9945 32.3511 26.1992 32.3511C26.2348 32.3511 26.2704 32.3511 26.2971 32.3422C26.5374 32.2888 26.6887 32.0484 26.6264 31.808L26.6175 31.8169Z" fill="#515151"/>
<path d="M62.805 12.9157C59.7701 17.6165 51.8669 18.2041 51.8669 18.2041C51.8669 18.2041 59.4586 19.2458 56.1567 25.3978C52.8636 31.5408 42.1124 32.3065 42.1124 32.3065C42.1124 32.3065 49.1523 33.8022 43.6877 38.9481C38.2231 44.1119 28.3708 43.8804 28.3708 43.8804H27.009L26.1902 43.8626L19.1948 43.7914H19.2037C19.3372 43.4976 23.1464 35.7965 28.5665 27.0003C35.8735 15.1237 46.0996 1.23498 54.1274 0.852148C64.5138 0.344676 64.6028 10.138 62.805 12.9157Z" fill="url(#paint1_linear_122_71)"/>
<path d="M51.7245 9.57714C51.5821 9.71069 41.436 19.2992 33.9066 30.4636C35.5264 31.0601 41.2758 27.8907 45.0672 25.2999C45.263 25.1574 45.5389 25.2108 45.6813 25.4156C45.8237 25.6115 45.7703 25.8964 45.5656 26.0299C44.106 27.036 37.5467 31.3984 34.3516 31.3984C33.9867 31.3984 33.6752 31.3361 33.4171 31.2204C30.6759 35.3692 28.3352 39.705 27.0269 43.836C27.0269 43.8538 27.0268 43.8626 27.009 43.8716H26.1903C26.1547 43.7736 26.1546 43.6668 26.1813 43.5689C28.9137 34.9329 36.0337 25.4601 41.9789 18.6048C41.9433 18.5514 41.9166 18.5069 41.8988 18.4445C40.7774 13.6814 43.2249 10.3517 43.3317 10.2092C43.483 10.0134 43.7589 9.96888 43.9547 10.1202C44.1505 10.2627 44.195 10.5476 44.0437 10.7434C44.0259 10.7701 41.9077 13.6903 42.682 17.7946C47.2922 12.5418 51.0214 9.00735 51.1104 8.92723C51.2884 8.76697 51.5732 8.76697 51.7423 8.95393C51.9114 9.13199 51.9025 9.40799 51.7245 9.57714Z" fill="#515151"/>
<path d="M57.9278 42.9901V52.1068C57.9278 66.6721 46.1175 78.4864 31.557 78.4864H27.5342C12.9737 78.4864 1.16337 66.6721 1.16337 52.1068V42.9901H57.9278Z" fill="url(#paint2_linear_122_71)"/>
<path d="M57.9366 42.9901H1.17212V51.3589H57.9366V42.9901Z" fill="url(#paint3_linear_122_71)"/>
<defs>
<linearGradient id="paint0_linear_122_71" x1="7.0463" y1="1.65346" x2="27.7949" y2="46.8755" gradientUnits="userSpaceOnUse">
<stop stop-color="white"/>
<stop offset="1" stop-color="#A2DD44"/>
</linearGradient>
<linearGradient id="paint1_linear_122_71" x1="27.3561" y1="47.4149" x2="68.0209" y2="-10.6556" gradientUnits="userSpaceOnUse">
<stop stop-color="#9CD63F"/>
<stop offset="1" stop-color="white"/>
</linearGradient>
<linearGradient id="paint2_linear_122_71" x1="28.5399" y1="57.9383" x2="65.5568" y2="47.982" gradientUnits="userSpaceOnUse">
<stop offset="0.1" stop-color="#FFD791"/>
<stop offset="1" stop-color="#F5D0FC"/>
</linearGradient>
<linearGradient id="paint3_linear_122_71" x1="21.3129" y1="49.8009" x2="66.1096" y2="35.5024" gradientUnits="userSpaceOnUse">
<stop offset="0.29" stop-color="#FFC96B"/>
<stop offset="1" stop-color="#F5D0FC"/>
</linearGradient>
</defs>
</svg>
