<svg width="35" height="35" viewBox="0 0 35 35" fill="none" xmlns="http://www.w3.org/2000/svg">
<path d="M25.625 2.28898C28.222 3.78837 30.3786 5.94495 31.878 8.54196C33.3773 11.139 34.1667 14.0849 34.1667 17.0837C34.1666 20.0825 33.3773 23.0284 31.8779 25.6254C30.3784 28.2224 28.2218 30.3789 25.6248 31.8783C23.0278 33.3777 20.0818 34.167 17.0831 34.1669C14.0843 34.1669 11.1384 33.3775 8.54138 31.878C5.9444 30.3786 3.78787 28.222 2.28854 25.6249C0.789216 23.0279 -7.6174e-05 20.0819 5.5139e-09 17.0832L0.00854187 16.5296C0.104214 13.5793 0.962727 10.7042 2.50038 8.18443C4.03804 5.66469 6.20237 3.58638 8.78236 2.15212C11.3623 0.717851 14.27 -0.0234226 17.2217 0.00056417C20.1735 0.0245509 23.0687 0.812979 25.625 2.28898ZM22.2083 8.54148H11.9583C9.75971 8.54148 9.68283 11.7258 11.7311 11.9462L11.9583 11.9582H13.6667C14.2664 11.9582 14.8556 12.116 15.375 12.4159C15.8943 12.7158 16.3256 13.1471 16.6255 13.6665H11.9583C11.5053 13.6665 11.0707 13.8465 10.7504 14.1668C10.43 14.4872 10.25 14.9217 10.25 15.3748C10.25 15.8279 10.43 16.2624 10.7504 16.5828C11.0707 16.9032 11.5053 17.0832 11.9583 17.0832L16.6255 17.0849C16.3254 17.6039 15.894 18.0349 15.3747 18.3345C14.8553 18.634 14.2662 18.7916 13.6667 18.7915H11.9583C10.4379 18.7915 9.67429 20.6314 10.7505 21.7076L15.8755 26.8326C16.1959 27.1529 16.6303 27.3328 17.0833 27.3328C17.5363 27.3328 17.9708 27.1529 18.2911 26.8326L18.4329 26.672C18.6879 26.3433 18.8142 25.9329 18.7881 25.5177C18.762 25.1026 18.5853 24.7112 18.2911 24.417L15.756 21.8801L15.949 21.8169C17.0033 21.4423 17.9497 20.8151 18.7055 19.9902C19.4613 19.1653 20.0035 18.1678 20.2847 17.0849L22.2083 17.0832C22.6614 17.0832 23.0959 16.9032 23.4163 16.5828C23.7367 16.2624 23.9167 15.8279 23.9167 15.3748C23.9167 14.9217 23.7367 14.4872 23.4163 14.1668C23.0959 13.8465 22.6614 13.6665 22.2083 13.6665H20.2847C20.1538 13.1595 19.9646 12.6694 19.721 12.2059L19.586 11.9582H22.2083C22.6614 11.9582 23.0959 11.7782 23.4163 11.4578C23.7367 11.1374 23.9167 10.7029 23.9167 10.2498L23.9047 10.0499C23.8558 9.63439 23.656 9.25125 23.3433 8.97321C23.0306 8.69516 22.6268 8.54154 22.2083 8.54148Z" fill="url(#paint0_linear_122_425)"/>
<defs>
<linearGradient id="paint0_linear_122_425" x1="17.0833" y1="0" x2="24.5833" y2="34.5832" gradientUnits="userSpaceOnUse">
<stop stop-color="#FED879"/>
<stop offset="1" stop-color="#926900"/>
</linearGradient>
</defs>
</svg>
