<svg width="35" height="35" viewBox="0 0 35 35" fill="none" xmlns="http://www.w3.org/2000/svg">
<path d="M13.125 8.75H29.5312M13.125 17.5H22.9688M13.125 26.25H29.5312M7.65625 26.25C7.65625 26.5401 7.54102 26.8183 7.3359 27.0234C7.13078 27.2285 6.85258 27.3438 6.5625 27.3438C6.27242 27.3438 5.99422 27.2285 5.7891 27.0234C5.58398 26.8183 5.46875 26.5401 5.46875 26.25C5.46875 25.9599 5.58398 25.6817 5.7891 25.4766C5.99422 25.2715 6.27242 25.1562 6.5625 25.1562C6.85258 25.1562 7.13078 25.2715 7.3359 25.4766C7.54102 25.6817 7.65625 25.9599 7.65625 26.25ZM7.65625 17.5C7.65625 17.7901 7.54102 18.0683 7.3359 18.2734C7.13078 18.4785 6.85258 18.5938 6.5625 18.5938C6.27242 18.5938 5.99422 18.4785 5.7891 18.2734C5.58398 18.0683 5.46875 17.7901 5.46875 17.5C5.46875 17.2099 5.58398 16.9317 5.7891 16.7266C5.99422 16.5215 6.27242 16.4062 6.5625 16.4062C6.85258 16.4062 7.13078 16.5215 7.3359 16.7266C7.54102 16.9317 7.65625 17.2099 7.65625 17.5ZM7.65625 8.75C7.65625 9.04008 7.54102 9.31828 7.3359 9.5234C7.13078 9.72852 6.85258 9.84375 6.5625 9.84375C6.27242 9.84375 5.99422 9.72852 5.7891 9.5234C5.58398 9.31828 5.46875 9.04008 5.46875 8.75C5.46875 8.45992 5.58398 8.18172 5.7891 7.9766C5.99422 7.77148 6.27242 7.65625 6.5625 7.65625C6.85258 7.65625 7.13078 7.77148 7.3359 7.9766C7.54102 8.18172 7.65625 8.45992 7.65625 8.75Z" stroke="white" stroke-width="2" stroke-linecap="round"/>
</svg>
