<svg width="35" height="35" viewBox="0 0 35 35" fill="none" xmlns="http://www.w3.org/2000/svg">
<path d="M18.7265 22.0208L17.5 18.9583L16.2736 22.0208L13.125 22.3008L15.5167 24.4723L14.7963 27.7083L17.5 25.9889L20.2038 27.7083L19.4833 24.4723L21.875 22.3008L18.7265 22.0208ZM8.75001 2.91663H26.25V5.83329H8.75001V2.91663ZM5.83334 8.74996H29.1667V11.6666H5.83334V8.74996Z" fill="white"/>
<path d="M29.1667 17.5V29.1667H5.83332V17.5H29.1667ZM29.1667 14.5834H5.83332C5.05978 14.5834 4.31791 14.8907 3.77093 15.4376C3.22395 15.9846 2.91666 16.7265 2.91666 17.5V29.1667C2.91666 29.9403 3.22395 30.6821 3.77093 31.2291C4.31791 31.7761 5.05978 32.0834 5.83332 32.0834H29.1667C29.9402 32.0834 30.6821 31.7761 31.2291 31.2291C31.776 30.6821 32.0833 29.9403 32.0833 29.1667V17.5C32.0833 16.7265 31.776 15.9846 31.2291 15.4376C30.6821 14.8907 29.9402 14.5834 29.1667 14.5834Z" fill="white"/>
</svg>
