<svg width="17" height="17" viewBox="0 0 17 17" fill="none" xmlns="http://www.w3.org/2000/svg">
<path d="M8.50003 13.4584C8.67352 13.4584 8.84098 13.5221 8.97063 13.6374C9.10028 13.7527 9.1831 13.9116 9.2034 14.0839L9.20836 14.1667V14.8751C9.20816 15.0556 9.13903 15.2293 9.01509 15.3605C8.89116 15.4918 8.72177 15.5708 8.54154 15.5814C8.36131 15.592 8.18384 15.5334 8.0454 15.4175C7.90695 15.3016 7.81798 15.1372 7.79665 14.958L7.7917 14.8751V14.1667C7.7917 13.9789 7.86632 13.7987 7.99916 13.6659C8.132 13.533 8.31217 13.4584 8.50003 13.4584ZM12.9717 11.978L13.0383 12.0368L13.5342 12.5326C13.6612 12.6601 13.7349 12.8311 13.7404 13.011C13.7459 13.1909 13.6828 13.3661 13.5637 13.5011C13.4447 13.6361 13.2788 13.7207 13.0996 13.7378C12.9205 13.7548 12.7415 13.7031 12.5992 13.593L12.5326 13.5342L12.0367 13.0384C11.9145 12.9164 11.8411 12.7539 11.8302 12.5815C11.8194 12.4091 11.8719 12.2387 11.9779 12.1024C12.0839 11.966 12.2361 11.8731 12.4058 11.841C12.5755 11.809 12.7511 11.8401 12.8995 11.9284L12.9717 11.978ZM4.96332 12.0368C5.08528 12.1588 5.15854 12.321 5.16937 12.4932C5.18019 12.6653 5.12783 12.8355 5.02211 12.9718L4.96332 13.0384L4.46749 13.5342C4.34002 13.6612 4.16897 13.735 3.98909 13.7405C3.80921 13.746 3.63398 13.6828 3.499 13.5638C3.36401 13.4448 3.2794 13.2788 3.26233 13.0997C3.24526 12.9205 3.29703 12.7416 3.40711 12.5992L3.4659 12.5326L3.96174 12.0368C4.09457 11.904 4.2747 11.8294 4.46253 11.8294C4.65035 11.8294 4.83049 11.904 4.96332 12.0368ZM2.83336 7.79175C3.0139 7.79195 3.18755 7.86108 3.31883 7.98502C3.45011 8.10895 3.52911 8.27834 3.53969 8.45857C3.55027 8.6388 3.49163 8.81627 3.37576 8.95471C3.25988 9.09316 3.09551 9.18213 2.91624 9.20346L2.83336 9.20841H2.12503C1.94449 9.20821 1.77084 9.13908 1.63956 9.01515C1.50828 8.89121 1.42928 8.72182 1.4187 8.54159C1.40812 8.36136 1.46676 8.1839 1.58263 8.04545C1.69851 7.907 1.86288 7.81803 2.04215 7.79671L2.12503 7.79175H2.83336ZM14.875 7.79175C15.0556 7.79195 15.2292 7.86108 15.3605 7.98502C15.4918 8.10895 15.5708 8.27834 15.5814 8.45857C15.5919 8.6388 15.5333 8.81627 15.4174 8.95471C15.3015 9.09316 15.1372 9.18213 14.9579 9.20346L14.875 9.20841H14.1667C13.9862 9.20821 13.8125 9.13908 13.6812 9.01515C13.5499 8.89121 13.4709 8.72182 13.4604 8.54159C13.4498 8.36136 13.5084 8.1839 13.6243 8.04545C13.7402 7.907 13.9045 7.81803 14.0838 7.79671L14.1667 7.79175H14.875ZM4.4009 3.40716L4.46749 3.46596L4.96332 3.96179C5.09036 4.08926 5.16411 4.26031 5.16961 4.44019C5.1751 4.62007 5.11192 4.79529 4.99289 4.93028C4.87387 5.06526 4.70793 5.14988 4.52878 5.16695C4.34962 5.18401 4.17069 5.13225 4.02832 5.02216L3.96174 4.96337L3.4659 4.46754C3.34413 4.34548 3.27106 4.1832 3.26039 4.01111C3.24972 3.83903 3.30218 3.66896 3.40794 3.53279C3.51369 3.39662 3.66548 3.3037 3.83485 3.27144C4.00422 3.23919 4.17954 3.26981 4.32795 3.35758L4.4009 3.40716ZM13.5342 3.46596C13.6561 3.58793 13.7294 3.75021 13.7402 3.92235C13.751 4.09449 13.6987 4.26467 13.5929 4.40096L13.5342 4.46754L13.0383 4.96337C12.9108 5.09041 12.7398 5.16417 12.5599 5.16966C12.38 5.17515 12.2048 5.11197 12.0698 4.99295C11.9348 4.87392 11.8502 4.70798 11.8332 4.52883C11.8161 4.34967 11.8679 4.17074 11.9779 4.02837L12.0367 3.96179L12.5326 3.46596C12.6654 3.33316 12.8455 3.25857 13.0334 3.25857C13.2212 3.25857 13.4013 3.33316 13.5342 3.46596ZM8.50003 1.41675C8.67352 1.41677 8.84098 1.48047 8.97063 1.59575C9.10028 1.71104 9.1831 1.8699 9.2034 2.04221L9.20836 2.12508V2.83341C9.20816 3.01395 9.13903 3.1876 9.01509 3.31888C8.89116 3.45016 8.72177 3.52916 8.54154 3.53974C8.36131 3.55033 8.18384 3.49169 8.0454 3.37581C7.90695 3.25993 7.81798 3.09557 7.79665 2.91629L7.7917 2.83341V2.12508C7.7917 1.93722 7.86632 1.75705 7.99916 1.62421C8.132 1.49138 8.31217 1.41675 8.50003 1.41675ZM8.50003 4.95841C9.19397 4.95837 9.87263 5.16219 10.4517 5.54456C11.0308 5.92693 11.4848 6.47099 11.7573 7.10917C12.0299 7.74735 12.1089 8.45154 11.9847 9.13426C11.8604 9.81698 11.5383 10.4482 11.0584 10.9494C10.5785 11.4506 9.96192 11.7998 9.28524 11.9537C8.60856 12.1075 7.90161 12.0591 7.25218 11.8146C6.60276 11.57 6.03948 11.1401 5.63231 10.5782C5.22514 10.0162 4.99202 9.34707 4.9619 8.65379L4.95836 8.50008L4.9619 8.34637C5.00151 7.43457 5.39158 6.57326 6.05077 5.94205C6.70996 5.31084 7.58737 4.95847 8.50003 4.95841Z" fill="#B994F2"/>
</svg>
