<svg width="35" height="35" viewBox="0 0 35 35" fill="none" xmlns="http://www.w3.org/2000/svg">
<path d="M7.85 34C7.03823 34 6.36059 33.7282 5.81706 33.1847C5.27235 32.64 5 31.9618 5 31.15V8.61471C5 7.80294 5.27235 7.12529 5.81706 6.58176C6.36059 6.03706 7.03823 5.76471 7.85 5.76471H24.2759V7.52941H7.85C7.57941 7.52941 7.33059 7.64235 7.10353 7.86824C6.87765 8.09529 6.76471 8.34412 6.76471 8.61471V31.15C6.76471 31.4206 6.87765 31.6694 7.10353 31.8965C7.33059 32.1224 7.57941 32.2353 7.85 32.2353H30.3853C30.6559 32.2353 30.9047 32.1224 31.1318 31.8965C31.3576 31.6694 31.4706 31.4206 31.4706 31.15V14.7241H33.2353V31.15C33.2353 31.9618 32.9635 32.6394 32.42 33.1829C31.8753 33.7276 31.1971 34 30.3853 34H7.85ZM12.9412 27.8235V26.0588H25.2941V27.8235H12.9412ZM12.9412 22.5294V20.7647H25.2941V22.5294H12.9412ZM12.9412 17.2353V15.4706H25.2941V17.2353H12.9412ZM29.7059 12.8235V9.29412H26.1765V7.52941H29.7059V4H31.4706V7.52941H35V9.29412H31.4706V12.8235H29.7059Z" fill="white"/>
</svg>
