<svg width="35" height="35" viewBox="0 0 35 35" fill="none" xmlns="http://www.w3.org/2000/svg">
<path d="M8.75 21.875V28.4375H30.625V13.125H26.25V10.9375H31.4103C31.8981 10.9375 32.0753 10.9878 32.2525 11.0841C32.4295 11.1769 32.5743 11.321 32.6681 11.4975C32.7622 11.6747 32.8125 11.8519 32.8125 12.3397V29.2228C32.8125 29.7106 32.7622 29.8878 32.6659 30.065C32.5731 30.242 32.429 30.3868 32.2525 30.4806C32.0753 30.5747 31.8981 30.625 31.4103 30.625H7.96469C7.47688 30.625 7.29969 30.5747 7.1225 30.4784C6.94552 30.3856 6.80067 30.2415 6.70687 30.065C6.615 29.8878 6.5625 29.7106 6.5625 29.225V21.875H8.75Z" fill="white"/>
<path d="M26.25 6.5625H4.375V21.875H26.25V6.5625ZM28.4375 5.77719V22.6603C28.4375 23.1481 28.3872 23.3253 28.2909 23.5025C28.1981 23.6795 28.054 23.8243 27.8775 23.9181C27.7003 24.0122 27.5231 24.0625 27.0353 24.0625H3.58969C3.10188 24.0625 2.92469 24.0122 2.7475 23.9159C2.57052 23.8231 2.42567 23.679 2.33187 23.5025C2.24 23.3253 2.1875 23.1481 2.1875 22.6625V5.77719C2.1875 5.28938 2.23781 5.11219 2.33406 4.935C2.42692 4.75802 2.57101 4.61317 2.7475 4.51937C2.92469 4.4275 3.10187 4.375 3.5875 4.375H27.0331C27.5209 4.375 27.6981 4.42531 27.8753 4.52156C28.0523 4.61442 28.1971 4.75851 28.2909 4.935C28.385 5.11219 28.4353 5.28938 28.4353 5.77719H28.4375Z" fill="white"/>
<path d="M15.3125 19.6875C13.8621 19.6875 12.4711 19.1113 11.4455 18.0857C10.4199 17.0602 9.84375 15.6692 9.84375 14.2188C9.84375 12.7683 10.4199 11.3773 11.4455 10.3518C12.4711 9.32617 13.8621 8.75 15.3125 8.75C16.7629 8.75 18.1539 9.32617 19.1795 10.3518C20.2051 11.3773 20.7812 12.7683 20.7812 14.2188C20.7812 15.6692 20.2051 17.0602 19.1795 18.0857C18.1539 19.1113 16.7629 19.6875 15.3125 19.6875ZM15.3125 17.5C16.1827 17.5 17.0173 17.1543 17.6327 16.5389C18.248 15.9236 18.5938 15.089 18.5938 14.2188C18.5938 13.3485 18.248 12.5139 17.6327 11.8986C17.0173 11.2832 16.1827 10.9375 15.3125 10.9375C14.4423 10.9375 13.6077 11.2832 12.9923 11.8986C12.377 12.5139 12.0312 13.3485 12.0312 14.2188C12.0312 15.089 12.377 15.9236 12.9923 16.5389C13.6077 17.1543 14.4423 17.5 15.3125 17.5Z" fill="white"/>
</svg>
