<svg width="250" height="62" viewBox="0 0 250 62" fill="none" xmlns="http://www.w3.org/2000/svg">
<path d="M152.911 4.59338L177.668 17.7001C189.996 24.2265 204.899 23.5296 216.563 15.881C234.586 4.06406 258.852 14.0679 263.31 35.1526L277.227 100.97C278.278 105.941 274.406 110.587 269.327 110.449L11.7308 103.411C8.27426 103.316 5.29659 100.987 4.55452 97.6094C1.35464 83.0458 -4.99892 44.8865 14.5472 38.5423C18.7331 37.1836 23.5735 37.4572 28.4032 38.5759C45.017 42.4242 63.4312 43.6762 77.0546 33.4179L110.904 7.92976C123.075 -1.23451 139.447 -2.53485 152.911 4.59338Z" fill="#D9D9D9" fill-opacity="0.2"/>
</svg>
